<svg version="1.1" xmlns="http://www.w3.org/2000/svg" xmlns:xlink="http://www.w3.org/1999/xlink" width="39.58021" height="39.95722" viewBox="0,0,39.58021,39.95722"><defs><linearGradient x1="320" y1="160.52139" x2="320" y2="199.47861" gradientUnits="userSpaceOnUse" id="color-1"><stop offset="0" stop-color="#ffc6d1" stop-opacity="0.4902"/><stop offset="1" stop-color="#ff94a4" stop-opacity="0.4902"/></linearGradient><linearGradient x1="320" y1="160.52139" x2="320" y2="199.47861" gradientUnits="userSpaceOnUse" id="color-2"><stop offset="0" stop-color="#ffc6d1" stop-opacity="0.4902"/><stop offset="1" stop-color="#ff94a4" stop-opacity="0.4902"/></linearGradient><linearGradient x1="319.88918" y1="162.04222" x2="319.88918" y2="198.09036" gradientUnits="userSpaceOnUse" id="color-3"><stop offset="0" stop-color="#ffffff" stop-opacity="0.40784"/><stop offset="1" stop-color="#ffffff" stop-opacity="0.40784"/></linearGradient></defs><g transform="translate(-300.20989,-160.02139)"><g data-paper-data="{&quot;isPaintingLayer&quot;:true}" fill-rule="evenodd" stroke-width="1" stroke-linecap="butt" stroke-linejoin="miter" stroke-miterlimit="10" stroke-dasharray="" stroke-dashoffset="0" style="mix-blend-mode: normal"><path d="M301.95675,198.31022c0,0 -3.9091,-19.90137 2.11589,-30.35862c3.24083,-5.62494 9.54946,-9.92372 15.68764,-5.77699c6.13818,4.14673 4.43506,13.27224 4.43506,13.27224c0,0 8.52015,-0.93875 11.98129,2.77491c6.24017,6.69542 2.12571,16.11268 -3.79604,18.32374c-14.28062,5.33205 -30.42383,1.76472 -30.42383,1.76472z" fill="url(#color-1)" stroke="url(#color-2)"/><path d="M303.12916,197.1039c0,0 -3.44766,-18.15745 2.09196,-27.77226c2.97975,-5.1718 7.90684,-9.68132 13.55054,-5.86865c5.6437,3.81267 3.39745,14.08463 3.39745,14.08463c0,0 9.53981,-1.75967 12.7221,1.65481c5.73745,6.15605 1.79632,14.0995 -3.64838,16.13243c-13.1302,4.9025 -28.11364,1.76907 -28.11364,1.76907z" fill="none" stroke="url(#color-3)"/></g></g></svg>