<svg version="1.1" xmlns="http://www.w3.org/2000/svg" xmlns:xlink="http://www.w3.org/1999/xlink" width="99.64457" height="94.53493" viewBox="0,0,99.64457,94.53493"><defs><linearGradient x1="319.99999" y1="133.23254" x2="319.99999" y2="226.76747" gradientUnits="userSpaceOnUse" id="color-1"><stop offset="0" stop-color="#ffc6d1" stop-opacity="0.4902"/><stop offset="1" stop-color="#ff94a4" stop-opacity="0.4902"/></linearGradient><linearGradient x1="320.06663" y1="137.11017" x2="320.06663" y2="222.78837" gradientUnits="userSpaceOnUse" id="color-2"><stop offset="0" stop-color="#ffffff" stop-opacity="0.40784"/><stop offset="1" stop-color="#ffffff" stop-opacity="0.40784"/></linearGradient></defs><g transform="translate(-270.17772,-132.73253)"><g data-paper-data="{&quot;isPaintingLayer&quot;:true}" fill="none" fill-rule="evenodd" stroke-width="1" stroke-linecap="butt" stroke-linejoin="miter" stroke-miterlimit="10" stroke-dasharray="" stroke-dashoffset="0" style="mix-blend-mode: normal"><g><path d="M312.40232,226.76747c0,0 -36.82695,-31.08865 -41.19863,-59.43201c-2.35153,-15.24586 2.9559,-32.59255 20.49979,-34.02728c17.54386,-1.43473 27.94931,18.016 27.94931,18.016c0,0 14.40179,-14.40392 26.33855,-12.66278c21.52103,3.13914 27.88934,26.71473 20.19619,39.61563c-18.55241,31.11113 -53.78518,48.49044 -53.78518,48.49044z" stroke="url(#color-1)"/><path d="M312.78315,222.78837c0,0 -33.37941,-28.54109 -37.39893,-54.60117c-2.16211,-14.01768 0.27065,-29.70177 16.40122,-31.02093c16.13057,-1.31916 27.23291,21.0644 27.23291,21.0644c0,0 15.07211,-17.44145 26.04726,-15.84056c19.78734,2.88626 24.28645,23.47166 17.21305,35.3333c-17.05785,28.60488 -49.4955,45.06496 -49.4955,45.06496z" stroke="url(#color-2)"/></g></g></g></svg>