<svg version="1.1" xmlns="http://www.w3.org/2000/svg" xmlns:xlink="http://www.w3.org/1999/xlink" width="45.13363" height="45.13363" viewBox="0,0,45.13363,45.13363"><g transform="translate(-297.43318,-157.43318)"><g data-paper-data="{&quot;isPaintingLayer&quot;:true}" stroke-linecap="butt" stroke-miterlimit="10" stroke-dasharray="" stroke-dashoffset="0" style="mix-blend-mode: normal"><path d="M299.18318,180c0,-11.49681 9.32001,-20.81682 20.81682,-20.81682c11.49681,0 20.81682,9.32001 20.81682,20.81682c0,11.49681 -9.32001,20.81682 -20.81682,20.81682c-11.49681,0 -20.81682,-9.32001 -20.81682,-20.81682z" fill="#5865f2" fill-rule="evenodd" stroke="#000000" stroke-width="3.5" stroke-linejoin="round"/><path d="M331.93875,186.15618c-2.08546,1.56198 -4.10839,2.50963 -6.09725,3.12976c-0.49247,-0.67631 -0.92813,-1.39724 -1.30506,-2.15302c0.71787,-0.27328 1.40733,-0.61048 2.05891,-1.00386c-0.17047,-0.12791 -0.33903,-0.26164 -0.50383,-0.39923c-3.9152,1.85656 -8.2206,1.85656 -12.18314,0c-0.16288,0.1376 -0.33147,0.27133 -0.50383,0.39923c0.64967,0.39146 1.33724,0.72866 2.05512,1.00191c-0.37693,0.75773 -0.81447,1.4767 -1.30506,2.15305c-1.98695,-0.62013 -4.008,-1.5678 -6.09346,-3.12784c-0.42618,-4.57544 0.42618,-9.21678 3.57046,-13.97635c1.55888,-0.73253 3.22763,-1.26546 4.97214,-1.5678c0.21593,0.38759 0.47164,0.90892 0.64399,1.32363c1.81839,-0.27906 3.65381,-0.27906 5.50627,0c0.17239,-0.41471 0.42242,-0.93603 0.63643,-1.32363c1.74263,0.30234 3.40946,0.83332 4.96834,1.56394c2.72569,4.0774 4.08,8.67612 3.57993,13.98022zM318.16453,180.87532c0.02083,-1.35656 -0.95464,-2.46892 -2.16501,-2.46892c-1.21035,0 -2.16501,1.1143 -2.16501,2.46892c0,1.35461 0.9755,2.467 2.16501,2.467c1.21038,0 2.1669,-1.11239 2.16501,-2.467zM326.16541,180.87532c0.02083,-1.35656 -0.95467,-2.46892 -2.16501,-2.46892c-1.21038,0 -2.16501,1.1143 -2.16501,2.46892c0,1.35461 0.9755,2.467 2.16501,2.467c1.21035,0 2.16501,-1.11239 2.16501,-2.467z" fill="#ffffff" fill-rule="nonzero" stroke="none" stroke-width="1" stroke-linejoin="miter"/></g></g></svg>